# xmcd
#
# Track frame offsets:
# 150
# 12225
# 23700
# 33900
# 46650
# 57825
# 77100
# 90300
# 99525
# 111000
# 122700
# 137775
# 153375
# 164700
# 180825
# 194550
# 209175
# 222525
# 239175
# 248925
# 264750
# 281100
# 295125
# 309075
#
# Disc length: 4347 seconds
#
#
# Revision: 0
# Processed by: cddbd v1.4PL0 Copyright (c) Steve Scherf et al.
# Submitted via: FreeRIP 2.00 
#
DISCID=5710f918
DTITLE=Tubes des années 60 - Disque 3/5
DYEAR=1900
DGENRE=Chanson
TTITLE0=A présent tu peux t'en aller
TTITLE1=Quand rrevient la nuit
TTITLE2=Early bird
TTITLE3=N'avoue jamais
TTITLE4=J'ai pleuré
TTITLE5=Ma vie
TTITLE6=Mes mains sur les hanches
TTITLE7=Katy
TTITLE8=Donna donna
TTITLE9=Ce monde
TTITLE10=La nuit
TTITLE11=Les élucubrations d'Antoine
TTITLE12=Le jouet extraordinaire
TTITLE13=Capri, c'est fini
TTITLE14=Le chef de la bande
TTITLE15=Merci Chérie
TTITLE16=Mourir ou vivre
TTITLE17=Cheveux long, idée courte
TTITLE18=Oh! eh! hein! Bon!
TTITLE19=Les jolies colonnies de vacances
TTITLE20=La plage aux romantiques
TTITLE21=Les play-boys
TTITLE22=Céline
TTITLE23=La maison où j'ai grandi
EXTD=
EXTT0=
EXTT1=
EXTT2=
EXTT3=
EXTT4=
EXTT5=
EXTT6=
EXTT7=
EXTT8=
EXTT9=
EXTT10=
EXTT11=
EXTT12=
EXTT13=
EXTT14=
EXTT15=
EXTT16=
EXTT17=
EXTT18=
EXTT19=
EXTT20=
EXTT21=
EXTT22=
EXTT23=
PLAYORDER=
